<mxfile host="Electron" modified="2023-12-13T02:13:14.636Z" agent="Mozilla/5.0 (Windows NT 10.0; Win64; x64) AppleWebKit/537.36 (KHTML, like Gecko) draw.io/22.1.2 Chrome/114.0.5735.289 Electron/25.9.4 Safari/537.36" etag="rvFwS71WPeJSeFjjIkP-" version="22.1.2" type="device">
  <diagram name="Page-1" id="wbO8fJ6J_zvAoPGpTCKr">
    <mxGraphModel dx="1508" dy="878" grid="0" gridSize="10" guides="1" tooltips="1" connect="1" arrows="1" fold="1" page="0" pageScale="1" pageWidth="850" pageHeight="1100" math="0" shadow="0">
      <root>
        <mxCell id="0" />
        <mxCell id="1" parent="0" />
        <mxCell id="jaMOgLZvB3yP1dYOfS98-2" value="Hệ thống" style="swimlane;whiteSpace=wrap;html=1;fontSize=14;" parent="1" vertex="1">
          <mxGeometry x="450" y="150" width="444" height="830" as="geometry" />
        </mxCell>
        <mxCell id="jaMOgLZvB3yP1dYOfS98-16" value="Hệ thống gọi trang giỏ hàng hiển thị các sản phẩm có trong giỏ hàng" style="rounded=1;whiteSpace=wrap;html=1;strokeWidth=1;fontSize=14;fontStyle=1" parent="jaMOgLZvB3yP1dYOfS98-2" vertex="1">
          <mxGeometry x="48.920000000000016" y="120" width="290" height="50" as="geometry" />
        </mxCell>
        <mxCell id="ZwuwxxH1zMdvEdTxROpJ-25" style="edgeStyle=orthogonalEdgeStyle;rounded=0;orthogonalLoop=1;jettySize=auto;html=1;entryX=1;entryY=0.5;entryDx=0;entryDy=0;" edge="1" parent="jaMOgLZvB3yP1dYOfS98-2" source="jaMOgLZvB3yP1dYOfS98-20" target="ZwuwxxH1zMdvEdTxROpJ-24">
          <mxGeometry relative="1" as="geometry" />
        </mxCell>
        <mxCell id="ZwuwxxH1zMdvEdTxROpJ-28" value="&lt;b&gt;Không&lt;/b&gt;" style="edgeLabel;html=1;align=center;verticalAlign=middle;resizable=0;points=[];" vertex="1" connectable="0" parent="ZwuwxxH1zMdvEdTxROpJ-25">
          <mxGeometry x="-0.1134" relative="1" as="geometry">
            <mxPoint as="offset" />
          </mxGeometry>
        </mxCell>
        <mxCell id="ZwuwxxH1zMdvEdTxROpJ-31" style="edgeStyle=orthogonalEdgeStyle;rounded=0;orthogonalLoop=1;jettySize=auto;html=1;entryX=0.5;entryY=0;entryDx=0;entryDy=0;" edge="1" parent="jaMOgLZvB3yP1dYOfS98-2" source="jaMOgLZvB3yP1dYOfS98-20" target="ZwuwxxH1zMdvEdTxROpJ-29">
          <mxGeometry relative="1" as="geometry" />
        </mxCell>
        <mxCell id="ZwuwxxH1zMdvEdTxROpJ-32" value="&lt;b&gt;Có&lt;/b&gt;" style="edgeLabel;html=1;align=center;verticalAlign=middle;resizable=0;points=[];" vertex="1" connectable="0" parent="ZwuwxxH1zMdvEdTxROpJ-31">
          <mxGeometry x="-0.0177" y="2" relative="1" as="geometry">
            <mxPoint as="offset" />
          </mxGeometry>
        </mxCell>
        <mxCell id="jaMOgLZvB3yP1dYOfS98-20" value="Các ô có được&lt;br&gt;điền hết ?" style="rhombus;whiteSpace=wrap;html=1;fontStyle=1;fontSize=14;" parent="jaMOgLZvB3yP1dYOfS98-2" vertex="1">
          <mxGeometry x="236" y="416" width="119" height="119" as="geometry" />
        </mxCell>
        <mxCell id="ZwuwxxH1zMdvEdTxROpJ-20" value="Hệ thống điều hướng sang trang kiểm tra thông tin" style="rounded=1;whiteSpace=wrap;html=1;strokeWidth=1;fontSize=14;fontStyle=1" vertex="1" parent="jaMOgLZvB3yP1dYOfS98-2">
          <mxGeometry x="48.920000000000016" y="227" width="290" height="50" as="geometry" />
        </mxCell>
        <mxCell id="jaMOgLZvB3yP1dYOfS98-3" value="" style="ellipse;whiteSpace=wrap;html=1;strokeColor=#000000;fillColor=#000000;strokeWidth=1;fontSize=14;fontStyle=1" parent="jaMOgLZvB3yP1dYOfS98-2" vertex="1">
          <mxGeometry x="207" y="766" width="30" height="30" as="geometry" />
        </mxCell>
        <mxCell id="jaMOgLZvB3yP1dYOfS98-4" value="" style="ellipse;whiteSpace=wrap;html=1;gradientColor=default;fillColor=none;fontSize=14;" parent="jaMOgLZvB3yP1dYOfS98-2" vertex="1">
          <mxGeometry x="197" y="756" width="50" height="50" as="geometry" />
        </mxCell>
        <mxCell id="ZwuwxxH1zMdvEdTxROpJ-24" value="hệ thống hiển thị thông báo&lt;br&gt;&quot;Vui lòng điền đầy đủ thông tin&quot;" style="rounded=1;whiteSpace=wrap;html=1;strokeWidth=1;fontSize=14;fontStyle=1" vertex="1" parent="jaMOgLZvB3yP1dYOfS98-2">
          <mxGeometry x="54" y="421" width="99" height="109" as="geometry" />
        </mxCell>
        <mxCell id="ZwuwxxH1zMdvEdTxROpJ-33" style="edgeStyle=orthogonalEdgeStyle;rounded=0;orthogonalLoop=1;jettySize=auto;html=1;" edge="1" parent="jaMOgLZvB3yP1dYOfS98-2" source="ZwuwxxH1zMdvEdTxROpJ-29" target="ZwuwxxH1zMdvEdTxROpJ-30">
          <mxGeometry relative="1" as="geometry" />
        </mxCell>
        <mxCell id="ZwuwxxH1zMdvEdTxROpJ-29" value="Hệ thống lưu thông tin đơn hàng" style="rounded=1;whiteSpace=wrap;html=1;strokeWidth=1;fontSize=14;fontStyle=1" vertex="1" parent="jaMOgLZvB3yP1dYOfS98-2">
          <mxGeometry x="140.71" y="588" width="162.58" height="35" as="geometry" />
        </mxCell>
        <mxCell id="ZwuwxxH1zMdvEdTxROpJ-34" style="edgeStyle=orthogonalEdgeStyle;rounded=0;orthogonalLoop=1;jettySize=auto;html=1;" edge="1" parent="jaMOgLZvB3yP1dYOfS98-2" source="ZwuwxxH1zMdvEdTxROpJ-30" target="jaMOgLZvB3yP1dYOfS98-4">
          <mxGeometry relative="1" as="geometry" />
        </mxCell>
        <mxCell id="ZwuwxxH1zMdvEdTxROpJ-30" value="Hệ thống điều hướng sang trang theo dõi giỏ hàng" style="rounded=1;whiteSpace=wrap;html=1;strokeWidth=1;fontSize=14;fontStyle=1" vertex="1" parent="jaMOgLZvB3yP1dYOfS98-2">
          <mxGeometry x="93" y="665" width="259" height="45" as="geometry" />
        </mxCell>
        <mxCell id="jaMOgLZvB3yP1dYOfS98-12" value="Khách hàng" style="swimlane;whiteSpace=wrap;html=1;fontSize=14;" parent="1" vertex="1">
          <mxGeometry x="79" y="150" width="371.22" height="830" as="geometry" />
        </mxCell>
        <mxCell id="jaMOgLZvB3yP1dYOfS98-13" value="" style="ellipse;whiteSpace=wrap;html=1;strokeColor=#000000;fillColor=#000000;strokeWidth=1;fontSize=14;fontStyle=1" parent="jaMOgLZvB3yP1dYOfS98-12" vertex="1">
          <mxGeometry x="182" y="40" width="30" height="30" as="geometry" />
        </mxCell>
        <mxCell id="jaMOgLZvB3yP1dYOfS98-14" value="Người dùng truy cập vào trang giỏ hàng" style="rounded=1;whiteSpace=wrap;html=1;strokeWidth=1;fontSize=14;fontStyle=1" parent="jaMOgLZvB3yP1dYOfS98-12" vertex="1">
          <mxGeometry x="52" y="120" width="290" height="50" as="geometry" />
        </mxCell>
        <mxCell id="jaMOgLZvB3yP1dYOfS98-15" style="edgeStyle=orthogonalEdgeStyle;rounded=0;orthogonalLoop=1;jettySize=auto;html=1;strokeWidth=3;fontSize=14;fontStyle=1" parent="jaMOgLZvB3yP1dYOfS98-12" source="jaMOgLZvB3yP1dYOfS98-13" target="jaMOgLZvB3yP1dYOfS98-14" edge="1">
          <mxGeometry relative="1" as="geometry" />
        </mxCell>
        <mxCell id="jaMOgLZvB3yP1dYOfS98-17" value="Người dùng ấn vào nút kiểm tra thông tin" style="rounded=1;whiteSpace=wrap;html=1;strokeWidth=1;fontSize=14;fontStyle=1" parent="jaMOgLZvB3yP1dYOfS98-12" vertex="1">
          <mxGeometry x="52" y="194" width="290" height="44" as="geometry" />
        </mxCell>
        <mxCell id="ZwuwxxH1zMdvEdTxROpJ-22" value="Người dùng nhập các thông tin bao gồm &lt;br&gt;:&quot;Tên người nhận , địa chỉ , số điện thoại&quot;&lt;br&gt;vào các ô tương ứng trên trang" style="rounded=1;whiteSpace=wrap;html=1;strokeWidth=1;fontSize=14;fontStyle=1" vertex="1" parent="jaMOgLZvB3yP1dYOfS98-12">
          <mxGeometry x="54" y="281" width="290" height="65" as="geometry" />
        </mxCell>
        <mxCell id="jaMOgLZvB3yP1dYOfS98-18" style="edgeStyle=orthogonalEdgeStyle;rounded=0;orthogonalLoop=1;jettySize=auto;html=1;entryX=0;entryY=0.5;entryDx=0;entryDy=0;fontSize=14;" parent="1" source="jaMOgLZvB3yP1dYOfS98-14" target="jaMOgLZvB3yP1dYOfS98-16" edge="1">
          <mxGeometry relative="1" as="geometry" />
        </mxCell>
        <mxCell id="jaMOgLZvB3yP1dYOfS98-19" style="edgeStyle=orthogonalEdgeStyle;rounded=0;orthogonalLoop=1;jettySize=auto;html=1;entryX=1;entryY=0.5;entryDx=0;entryDy=0;fontSize=14;" parent="1" source="jaMOgLZvB3yP1dYOfS98-16" target="jaMOgLZvB3yP1dYOfS98-17" edge="1">
          <mxGeometry relative="1" as="geometry">
            <Array as="points">
              <mxPoint x="646" y="366" />
            </Array>
          </mxGeometry>
        </mxCell>
        <mxCell id="ZwuwxxH1zMdvEdTxROpJ-21" style="edgeStyle=orthogonalEdgeStyle;rounded=0;orthogonalLoop=1;jettySize=auto;html=1;entryX=0;entryY=0.5;entryDx=0;entryDy=0;" edge="1" parent="1" source="jaMOgLZvB3yP1dYOfS98-17" target="ZwuwxxH1zMdvEdTxROpJ-20">
          <mxGeometry relative="1" as="geometry">
            <Array as="points">
              <mxPoint x="274" y="402" />
            </Array>
          </mxGeometry>
        </mxCell>
        <mxCell id="ZwuwxxH1zMdvEdTxROpJ-23" style="edgeStyle=orthogonalEdgeStyle;rounded=0;orthogonalLoop=1;jettySize=auto;html=1;entryX=1;entryY=0.5;entryDx=0;entryDy=0;" edge="1" parent="1" source="ZwuwxxH1zMdvEdTxROpJ-20" target="ZwuwxxH1zMdvEdTxROpJ-22">
          <mxGeometry relative="1" as="geometry">
            <Array as="points">
              <mxPoint x="648" y="464" />
            </Array>
          </mxGeometry>
        </mxCell>
        <mxCell id="ZwuwxxH1zMdvEdTxROpJ-26" style="edgeStyle=orthogonalEdgeStyle;rounded=0;orthogonalLoop=1;jettySize=auto;html=1;entryX=0.25;entryY=1;entryDx=0;entryDy=0;" edge="1" parent="1" source="ZwuwxxH1zMdvEdTxROpJ-24" target="ZwuwxxH1zMdvEdTxROpJ-22">
          <mxGeometry relative="1" as="geometry" />
        </mxCell>
        <mxCell id="ZwuwxxH1zMdvEdTxROpJ-27" style="edgeStyle=orthogonalEdgeStyle;rounded=0;orthogonalLoop=1;jettySize=auto;html=1;entryX=0.5;entryY=0;entryDx=0;entryDy=0;" edge="1" parent="1" source="ZwuwxxH1zMdvEdTxROpJ-22" target="jaMOgLZvB3yP1dYOfS98-20">
          <mxGeometry relative="1" as="geometry">
            <Array as="points">
              <mxPoint x="278" y="511" />
              <mxPoint x="746" y="511" />
              <mxPoint x="746" y="566" />
            </Array>
          </mxGeometry>
        </mxCell>
      </root>
    </mxGraphModel>
  </diagram>
</mxfile>
